<svg xmlns="http://www.w3.org/2000/svg" viewBox="0 0 900 500" style="font-family: Inter, sans-serif;"><rect width="900" height="500" fill="white"/><text x="450.0" y="30" text-anchor="middle" font-size="16" font-weight="bold" fill="#111827">Cross-Model Shelf Comparison: Discreteness-as-Stability</text><rect x="80" y="60" width="670" height="360" fill="#fafafa" stroke="#e5e7eb"/><line x1="80" y1="60.0" x2="750" y2="60.0" stroke="#e5e7eb"/><text x="70" y="64.0" text-anchor="end" font-size="11" fill="#374151">1.0</text><line x1="80" y1="132.0" x2="750" y2="132.0" stroke="#e5e7eb"/><text x="70" y="136.0" text-anchor="end" font-size="11" fill="#374151">0.8</text><line x1="80" y1="204.0" x2="750" y2="204.0" stroke="#e5e7eb"/><text x="70" y="208.0" text-anchor="end" font-size="11" fill="#374151">0.6</text><line x1="80" y1="276.0" x2="750" y2="276.0" stroke="#e5e7eb"/><text x="70" y="280.0" text-anchor="end" font-size="11" fill="#374151">0.4</text><line x1="80" y1="348.0" x2="750" y2="348.0" stroke="#e5e7eb"/><text x="70" y="352.0" text-anchor="end" font-size="11" fill="#374151">0.2</text><line x1="80" y1="420.0" x2="750" y2="420.0" stroke="#e5e7eb"/><text x="70" y="424.0" text-anchor="end" font-size="11" fill="#374151">0.0</text><path d="M 110.0 416.87027450604876 L 111.11666666666666 413.1183002413503 L 112.23333333333333 416.15104434758877 L 113.35 420.0 L 114.46666666666667 409.9688601521782 L 115.58333333333333 411.2688244660257 L 116.7 415.1135716423637 L 117.81666666666666 401.8144111882243 L 118.93333333333334 394.8576958271407 L 120.05 381.6817804465528 L 121.16666666666667 362.16834787650924 L 122.28333333333333 326.5540904547116 L 123.4 292.2857692656354 L 124.51666666666667 235.9311613319303 L 125.63333333333334 185.03050693800017 L 126.75 131.95463885376347 L 127.86666666666667 103.3670057324479 L 128.98333333333335 85.28415877782697 L 130.1 77.21424522407963 L 131.21666666666667 67.3527813973177 L 132.33333333333334 62.43369623964509 L 133.45 63.06207765376745 L 134.56666666666666 60.0 L 135.68333333333334 60.0 L 136.8 79.58409302630382 L 137.91666666666669 73.62281982165328 L 139.03333333333333 61.26534780466504 L 140.15 63.04181093852403 L 141.26666666666668 60.0 L 142.38333333333333 60.0 L 143.5 60.0 L 144.61666666666667 68.00655375492049 L 145.73333333333335 62.71875662681706 L 146.85 60.0 L 147.96666666666667 60.0 L 149.08333333333334 60.0 L 150.2 63.70084587615262 L 151.31666666666666 71.86614123016068 L 152.43333333333334 60.0 L 153.55 60.0 L 154.66666666666669 68.83693479056093 L 155.78333333333333 64.91923196482004 L 156.9 60.518714494036054 L 158.01666666666668 66.8022116860405 L 159.13333333333333 60.7075437686983 L 160.25 60.0 L 161.36666666666667 60.0 L 162.48333333333335 63.64530051536577 L 163.6 60.0 L 164.71666666666667 60.0 L 165.83333333333334 60.0 L 166.95 65.89179495588206 L 168.06666666666666 60.0 L 169.18333333333334 63.61735687483064 L 170.3 60.0 L 171.41666666666669 67.78059257926647 L 172.53333333333333 60.0 L 173.65 60.58820880155342 L 174.76666666666665 70.06872874601979 L 175.88333333333333 64.75239613753848 L 177.0 65.11146085770679 L 178.11666666666667 69.62040665312632 L 179.23333333333335 90.2502246704534 L 180.35000000000002 111.6260908459052 L 181.4666666666667 134.82932294823388 L 182.58333333333334 184.9198451282394 L 183.7 233.0625693019227 L 184.81666666666666 281.5147592773794 L 185.93333333333334 342.361692996048 L 187.05 360.5413935750563 L 188.16666666666669 374.98207625621535 L 189.28333333333333 399.6248103591479 L 190.4 411.83632653774856 L 191.51666666666668 405.8313527920766 L 192.63333333333333 412.65790647034794 L 193.75 410.0370642826262 L 194.86666666666667 420.0 L 195.98333333333335 420.0 L 197.10000000000002 419.8260283804797 L 198.2166666666667 420.0" fill="none" stroke="#2563eb" stroke-width="2"/><text x="148.28571428571428" y="440" text-anchor="middle" font-size="11" fill="#374151" transform="rotate(-30, 148.28571428571428, 440)">Floquet Ising</text><text x="148.28571428571428" y="465" text-anchor="middle" font-size="10" fill="#16a34a">Δ=1.82</text><path d="M 205.71428571428572 383.1264699299308 L 206.8309523809524 368.2873912201408 L 207.94761904761904 359.097461218143 L 209.06428571428572 356.5871156885118 L 210.1809523809524 315.53409618583646 L 211.29761904761907 294.558256779578 L 212.4142857142857 275.01115096791943 L 213.53095238095239 234.59971852939725 L 214.64761904761906 206.1320206397936 L 215.76428571428573 178.2961712837611 L 216.88095238095238 155.80137791250917 L 217.99761904761905 130.74341565885658 L 219.11428571428573 126.52369334733653 L 220.2309523809524 109.77040475128553 L 221.34761904761905 104.48240363401801 L 222.46428571428572 89.21653951088412 L 223.5809523809524 90.61098448977984 L 224.69761904761907 91.27950076394167 L 225.81428571428572 94.24370828652735 L 226.9309523809524 88.65069668929317 L 228.04761904761907 85.75102994986565 L 229.1642857142857 88.01264542903048 L 230.28095238095239 73.72404587477148 L 231.39761904761906 76.22371630251914 L 232.51428571428573 109.64024773743142 L 233.6309523809524 102.21899182856372 L 234.74761904761905 86.78053094827413 L 235.86428571428573 89.0027247093811 L 236.9809523809524 83.27832007421104 L 238.09761904761905 83.24447421280183 L 239.21428571428572 66.13956301395494 L 240.3309523809524 95.20821629640338 L 241.44761904761907 88.59845161850473 L 242.56428571428572 66.81505670951233 L 243.6809523809524 79.37967319272654 L 244.79761904761907 79.23242966288109 L 245.9142857142857 89.82605734588643 L 247.03095238095239 100.03267653771323 L 248.14761904761906 83.69281730199533 L 249.26428571428573 84.21887320960609 L 250.3809523809524 96.24616848820119 L 251.49761904761905 91.34903995602507 L 252.61428571428573 85.84839311755742 L 253.7309523809524 93.70276460824624 L 254.84761904761905 86.08442972493741 L 255.96428571428572 84.34065291131807 L 257.0809523809524 84.87972504344393 L 258.19761904761907 89.75663147919059 L 259.31428571428575 79.85629678610044 L 260.4309523809524 77.17960922087343 L 261.54761904761904 82.31273685090582 L 262.6642857142857 92.56517909821129 L 263.7809523809524 78.61814045112496 L 264.89761904761906 89.72054228598118 L 266.01428571428573 77.30542705026281 L 267.1309523809524 94.88587217863471 L 268.2476190476191 77.05403031211227 L 269.36428571428576 85.55119129589465 L 270.4809523809524 96.77095929434589 L 271.59761904761905 88.64940482223241 L 272.7142857142857 85.84904601477946 L 273.8309523809524 84.75141007283565 L 274.94761904761907 97.48708312972468 L 276.06428571428575 100.93484088160153 L 277.1809523809524 92.80989462897205 L 278.29761904761904 104.3440763718165 L 279.4142857142857 106.18466471377602 L 280.5309523809524 113.05993086201627 L 281.64761904761906 150.50291883552717 L 282.76428571428573 153.76768503569286 L 283.8809523809524 169.9215410458392 L 284.9976190476191 212.09091380480268 L 286.11428571428576 247.12711271630255 L 287.23095238095243 263.40837740506055 L 288.34761904761905 296.2946092849808 L 289.4642857142857 315.6193513488965 L 290.5809523809524 347.96564199453405 L 291.69761904761907 375.40775936729335 L 292.81428571428575 376.6720513940526 L 293.9309523809524 390.249181035615" fill="none" stroke="#8b5cf6" stroke-width="2"/><text x="244.0" y="440" text-anchor="middle" font-size="11" fill="#374151" transform="rotate(-30, 244.0, 440)">Floquet XXZ</text><text x="244.0" y="465" text-anchor="middle" font-size="10" fill="#16a34a">Δ=2.13</text><path d="M 301.42857142857144 226.16127229172366 L 302.5452380952381 219.96370866762948 L 303.6619047619048 224.1016448921806 L 304.77857142857147 240.45567960593172 L 305.8952380952381 215.1802412017729 L 307.01190476190476 218.5649479009132 L 308.12857142857143 227.44824953337064 L 309.2452380952381 213.45491416727876 L 310.3619047619048 213.67494225690785 L 311.47857142857146 212.09556915823597 L 312.59523809523813 212.3805089840937 L 313.7119047619048 203.92806297647462 L 314.8285714285714 214.63294571195507 L 315.9452380952381 204.95573905309547 L 317.06190476190477 204.55620886034518 L 318.17857142857144 191.53480465617665 L 319.2952380952381 176.09916735969594 L 320.4119047619048 158.21252139878803 L 321.52857142857147 142.02442224968615 L 322.64523809523814 114.88330942278338 L 323.76190476190476 101.28060885843507 L 324.87857142857143 125.81923341739919 L 325.9952380952381 130.34101047679815 L 327.1119047619048 154.91845469912892 L 328.22857142857146 216.54580970939676 L 329.34523809523813 217.6789033793198 L 330.4619047619048 203.2081519788749 L 331.5785714285714 209.5407071470914 L 332.6952380952381 205.9877368772055 L 333.81190476190477 208.94841050010243 L 334.92857142857144 189.12746848163198 L 336.0452380952381 221.08319927373844 L 337.1619047619048 209.918831538029 L 338.27857142857147 180.20818336438816 L 339.39523809523814 191.3419203548348 L 340.51190476190476 185.4727149229338 L 341.62857142857143 176.71089052668916 L 342.7452380952381 167.4846559255729 L 343.8619047619048 126.40264721059351 L 344.97857142857146 105.5597366675936 L 346.09523809523813 119.99249100190782 L 347.21190476190475 135.59011439542934 L 348.3285714285714 150.463515821386 L 349.4452380952381 181.36293924152108 L 350.56190476190477 193.69511499740145 L 351.67857142857144 197.2950960171447 L 352.7952380952381 201.8857853651061 L 353.9119047619048 211.30864737085201 L 355.02857142857147 202.66089586137494 L 356.14523809523814 202.3755239299342 L 357.2619047619048 207.83032566582722 L 358.37857142857143 217.13196770600584 L 359.4952380952381 197.07920603718404 L 360.6119047619048 206.73616558412328 L 361.72857142857146 187.78262564535868 L 362.84523809523813 198.84055903884047 L 363.9619047619048 155.91483151064062 L 365.0785714285714 144.53358498214584 L 366.1952380952381 136.32921005577748 L 367.31190476190477 104.75865870527514 L 368.42857142857144 111.52132861336696 L 369.5452380952381 130.63366439325637 L 370.6619047619048 165.66162023772785 L 371.77857142857147 188.487795029882 L 372.89523809523814 195.84683079788223 L 374.0119047619048 204.39021614570333 L 375.12857142857143 200.65285100808407 L 376.2452380952381 198.47643072957055 L 377.3619047619048 227.63946678847935 L 378.47857142857146 209.94007753191408 L 379.59523809523813 202.04601287272976 L 380.71190476190475 220.82561405491865 L 381.8285714285714 228.48778719156516 L 382.9452380952381 213.52492125793998 L 384.06190476190477 220.64857090739665 L 385.17857142857144 215.28254739744494 L 386.2952380952381 230.10991117315842 L 387.4119047619048 243.67400267116105 L 388.52857142857147 230.02530087632348 L 389.64523809523814 234.70852561854468" fill="none" stroke="#06b6d4" stroke-width="2"/><text x="339.7142857142857" y="440" text-anchor="middle" font-size="11" fill="#374151" transform="rotate(-30, 339.7142857142857, 440)">Kicked Rotor</text><text x="339.7142857142857" y="465" text-anchor="middle" font-size="10" fill="#16a34a">Δ=0.48</text><path d="M 397.1428571428571 75.51179381713357 L 398.2595238095238 72.08434936679168 L 399.37619047619046 75.62085305147963 L 400.49285714285713 87.38273206755143 L 401.60952380952375 71.48143775995356 L 402.7261904761904 74.78610307897914 L 403.8428571428571 81.86606329459406 L 404.9595238095238 73.81594964978626 L 406.07619047619045 75.37507874746028 L 407.1928571428571 75.88224602408025 L 408.3095238095238 77.79535986252628 L 409.42619047619047 74.0636664963904 L 410.5428571428571 83.302469426412 L 411.65952380952376 79.17295162554998 L 412.77619047619044 81.47125905129587 L 413.8928571428571 73.68830726903069 L 415.0095238095238 77.71400082613206 L 416.12619047619046 80.10568860694863 L 417.24285714285713 83.62974092896926 L 418.3595238095238 79.85178413245588 L 419.4761904761904 77.94137630026793 L 420.5928571428571 79.98434091815548 L 421.7095238095238 68.68274053633294 L 422.82619047619045 70.75158492979828 L 423.9428571428571 97.52036984855498 L 425.0595238095238 91.60089537096727 L 426.17619047619047 79.2583590627972 L 427.2928571428571 81.03977096334974 L 428.40952380952376 76.46177041801003 L 429.52619047619044 76.43528209663756 L 430.6428571428571 62.751560963632464 L 431.7595238095238 86.00654949138446 L 432.87619047619046 80.71875605131439 L 433.99285714285713 63.29204442605522 L 435.1095238095238 73.34373842734671 L 436.2261904761904 73.22594371889095 L 437.3428571428571 81.70084587614976 L 438.4595238095238 89.86614123016071 L 439.57619047619045 76.79425384159629 L 440.6928571428571 77.21509856768489 L 441.8095238095238 86.83693479056095 L 442.9261904761904 82.91923196482006 L 444.0428571428571 78.51871449403606 L 445.15952380952376 84.80221168603762 L 446.27619047619044 78.70754376853597 L 447.3928571428571 77.31252220221992 L 448.5095238095238 77.74377909320052 L 449.62619047619046 81.6452999398631 L 450.74285714285713 73.72501388314211 L 451.8595238095238 71.58359792916724 L 452.9761904761905 75.68989220712076 L 454.0928571428571 83.89125763721024 L 455.2095238095238 72.73210355674486 L 456.32619047619045 81.6103681329628 L 457.4428571428571 71.67004354832653 L 458.5595238095238 85.71686940151763 L 459.67619047619047 71.41583613747278 L 460.7928571428571 78.14445687323149 L 461.90952380952376 86.99099201040781 L 463.02619047619044 80.26007619816133 L 464.1428571428571 77.6104635928449 L 465.2595238095238 76.03590235801596 L 466.37619047619046 85.07175449957508 L 467.49285714285713 85.97308593958942 L 468.6095238095238 76.56299136350104 L 469.7261904761905 81.36059724153459 L 470.8428571428571 76.3043595955424 L 471.9595238095238 72.53145943815568 L 473.07619047619045 89.87126903772682 L 474.1928571428571 76.16840556107317 L 475.3095238095238 69.18254183374276 L 476.4261904761904 80.1421932794674 L 477.5428571428571 83.83786499931051 L 478.65952380952376 72.58384444430695 L 479.77619047619044 76.17518508330141 L 480.8928571428571 71.54964189040159 L 482.0095238095238 80.48555311236922 L 483.12619047619046 88.66909157079995 L 484.24285714285713 78.79207750592101 L 485.3595238095238 81.20996270168087" fill="none" stroke="#16a34a" stroke-width="2"/><text x="435.4285714285714" y="440" text-anchor="middle" font-size="11" fill="#374151" transform="rotate(-30, 435.4285714285714, 440)">Circle Map</text><text x="435.4285714285714" y="465" text-anchor="middle" font-size="10" fill="#16a34a">Δ=1.00</text><path d="M 492.85714285714283 92.2676907257003 L 493.9738095238095 89.86070126537739 L 495.0904761904762 97.89963400759915 L 496.20714285714286 118.27662974689672 L 497.3238095238095 97.15886550068981 L 498.44047619047615 104.85004069441801 L 499.5571428571428 118.20415823303033 L 500.6738095238095 108.86316498100845 L 501.79047619047617 113.93603584270934 L 502.90714285714284 117.43096397282918 L 504.0238095238095 123.03481194568812 L 505.1404761904762 120.17144911167415 L 506.2571428571428 136.76383072189648 L 507.3738095238095 133.30373123579332 L 508.49047619047616 139.485369589602 L 509.60714285714283 130.54511913139413 L 510.7238095238095 139.31783668223605 L 511.8404761904762 145.63954556865082 L 512.9571428571428 153.6598012668716 L 514.0738095238095 150.7270432872914 L 515.1904761904761 150.59560875419936 L 516.3071428571428 156.3942328962205 L 517.4238095238095 142.17600953867657 L 518.5404761904762 148.01345334406446 L 519.6571428571428 190.9008079373894 L 520.7738095238095 184.75577343619767 L 521.8904761904762 168.9761461891324 L 523.0071428571429 174.3824412551512 L 524.1238095238095 170.24961765233144 L 525.2404761904762 172.94406238546264 L 526.3571428571429 155.15265790114486 L 527.4738095238095 192.76931790796272 L 528.5904761904761 187.5718049630475 L 529.7071428571428 164.16591474034865 L 530.8238095238095 181.97763295747575 L 531.9404761904761 184.53511810998194 L 533.0571428571428 199.98164856106004 L 534.1738095238095 214.96376880726638 L 535.2904761904762 198.09011493960958 L 536.4071428571428 205.3198630414007 L 537.5238095238095 223.39818699596802 L 538.6404761904762 221.16720237760984 L 539.7571428571429 218.21199579168692 L 540.8738095238095 231.28281119994247 L 541.9904761904762 225.7863789439432 L 543.1071428571429 227.33941621472235 L 544.2238095238095 231.63187117144636 L 545.3404761904761 241.12972206169337 L 546.4571428571428 232.89486259686504 L 547.5738095238095 233.3283082861559 L 548.6904761904761 243.13331932333935 L 549.8071428571428 259.0809370887267 L 550.9238095238095 245.9877755882818 L 552.0404761904762 262.95074207286194 L 553.1571428571428 251.68582481616068 L 554.2738095238095 276.4016332162005 L 555.3904761904762 258.5956529403864 L 556.5071428571429 272.33415366427755 L 557.6238095238095 289.2495259902953 L 558.7404761904762 282.7987218921787 L 559.8571428571429 282.46987260445724 L 560.9738095238095 283.75360037246696 L 562.0904761904762 300.95294820505876 L 563.2071428571428 305.9505149853335 L 564.3238095238095 295.4809427414541 L 565.4404761904761 306.32292117875755 L 566.5571428571428 302.38413433002245 L 567.6738095238095 300.3703537141955 L 568.7904761904762 330.02563773380547 L 569.9071428571428 313.1169121390781 L 571.0238095238095 306.28368616833563 L 572.1404761904762 326.36873295717584 L 573.2571428571429 335.5578101571936 L 574.3738095238095 322.32234894494144 L 575.4904761904762 331.3549295236863 L 576.6071428571429 328.0621843545897 L 577.7238095238095 345.11162080779434 L 578.8404761904762 361.0324981156936 L 579.9571428571428 349.8625466386284 L 581.0738095238095 357.13494405252135" fill="none" stroke="#f59e0b" stroke-width="2"/><text x="531.1428571428571" y="440" text-anchor="middle" font-size="11" fill="#374151" transform="rotate(-30, 531.1428571428571, 440)">Standard Map</text><text x="531.1428571428571" y="465" text-anchor="middle" font-size="10" fill="#16a34a">Δ=0.28</text><path d="M 588.5714285714286 86.31179381713353 L 589.6880952380952 82.88434936679165 L 590.8047619047619 86.4208530514796 L 591.9214285714286 98.1827320675514 L 593.0380952380953 143.48143775995356 L 594.1547619047619 146.78610307897912 L 595.2714285714286 153.86606329459403 L 596.3880952380953 145.81594964978626 L 597.5047619047618 147.37507874746026 L 598.6214285714285 147.88224602408022 L 599.7380952380952 149.79535986252625 L 600.8547619047619 84.86366649639038 L 601.9714285714285 94.10246942641197 L 603.0880952380952 89.97295162554995 L 604.2047619047619 92.27125905129583 L 605.3214285714286 84.48830726903066 L 606.4380952380952 88.51400082613203 L 607.5547619047619 90.90568860694862 L 608.6714285714286 94.42974092896924 L 609.7880952380953 90.65178413245584 L 610.9047619047619 88.7413763002679 L 612.0214285714286 90.78434091815546 L 613.1380952380953 79.48274053633291 L 614.2547619047618 142.75158492979827 L 615.3714285714285 108.32036984855495 L 616.4880952380952 102.40089537096725 L 617.6047619047619 90.05835906279717 L 618.7214285714285 91.83977096334971 L 619.8380952380952 87.26177041801 L 620.9547619047619 87.23528209663753 L 622.0714285714286 73.55156096363243 L 623.1880952380952 96.80654949138443 L 624.3047619047619 91.51875605131437 L 625.4214285714286 74.09204442605522 L 626.5380952380953 84.14373842734668 L 627.6547619047619 145.22594371889093 L 628.7714285714286 153.70084587614974 L 629.8880952380953 100.66614123016066 L 631.0047619047618 87.59425384159627 L 632.1214285714285 88.01509856768484 L 633.2380952380952 97.63693479056091 L 634.3547619047619 93.71923196482003 L 635.4714285714285 89.31871449403604 L 636.5880952380952 156.80221168603762 L 637.7047619047619 150.70754376853597 L 638.8214285714286 88.1125222022199 L 639.9380952380952 88.5437790932005 L 641.0547619047619 92.44529993986308 L 642.1714285714286 84.52501388314207 L 643.2880952380953 82.38359792916721 L 644.4047619047619 86.48989220712073 L 645.5214285714286 94.69125763721021 L 646.6380952380953 83.53210355674483 L 647.7547619047618 92.41036813296276 L 648.8714285714286 82.47004354832652 L 649.9880952380952 96.5168694015176 L 651.1047619047619 143.41583613747275 L 652.2214285714285 88.94445687323146 L 653.3380952380952 97.79099201040779 L 654.4547619047619 91.06007619816131 L 655.5714285714286 88.41046359284486 L 656.6880952380952 86.83590235801593 L 657.8047619047619 95.87175449957505 L 658.9214285714286 96.77308593958938 L 660.0380952380953 87.36299136350101 L 661.1547619047619 92.16059724153456 L 662.2714285714286 87.10435959554238 L 663.3880952380953 83.33145943815565 L 664.5047619047618 100.67126903772683 L 665.6214285714286 148.16840556107314 L 666.7380952380952 141.18254183374273 L 667.8547619047619 152.1421932794674 L 668.9714285714285 155.83786499931048 L 670.0880952380952 144.58384444430692 L 671.2047619047619 148.17518508330141 L 672.3214285714286 143.54964189040157 L 673.4380952380952 91.28555311236919 L 674.5547619047619 99.46909157079992 L 675.6714285714286 89.59207750592098 L 676.7880952380953 92.00996270168085" fill="none" stroke="#dc2626" stroke-width="2"/><text x="626.8571428571429" y="440" text-anchor="middle" font-size="11" fill="#374151" transform="rotate(-30, 626.8571428571429, 440)">GL(2,R) Trace</text><text x="626.8571428571429" y="465" text-anchor="middle" font-size="10" fill="#dc2626">Δ=0.14</text><rect x="770" y="80" width="15" height="15" fill="#8b5cf6"/><text x="790" y="92" font-size="11" fill="#374151">Quantum</text><rect x="770" y="105" width="15" height="15" fill="#16a34a"/><text x="790" y="117" font-size="11" fill="#374151">Classical</text><rect x="770" y="130" width="15" height="15" fill="#f59e0b"/><text x="790" y="142" font-size="11" fill="#374151">Abstract</text><text x="25" y="240.0" text-anchor="middle" font-size="12" fill="#374151" transform="rotate(-90, 25, 240.0)">Order Parameter</text></svg>