<svg xmlns="http://www.w3.org/2000/svg" viewBox="0 0 800 400" style="font-family: Inter, sans-serif;"><rect width="800" height="400" fill="white"/><text x="400.0" y="30" text-anchor="middle" font-size="16" font-weight="bold" fill="#111827">Positive vs Negative Controls</text><rect x="70" y="60" width="330" height="260" fill="#f0fdf4" stroke="#16a34a" stroke-width="2" rx="4"/><text x="235.0" y="45" text-anchor="middle" font-size="13" font-weight="bold" fill="#16a34a">✓ REVERSIBLE (Shelves Present)</text><rect x="440" y="60" width="330" height="260" fill="#fef2f2" stroke="#dc2626" stroke-width="2" rx="4"/><text x="605.0" y="45" text-anchor="middle" font-size="13" font-weight="bold" fill="#dc2626">✗ IRREVERSIBLE (Shelves Collapsed)</text><rect x="85.0" y="165.18987341772151" width="33.0" height="144.81012658227849" fill="#2563eb" rx="2"/><text x="101.5" y="160.18987341772151" text-anchor="middle" font-size="9" fill="#374151">1.81</text><rect x="455.0" y="307" width="33.0" height="3" fill="#2563eb" opacity="0.5" rx="2"/><text x="471.5" y="302" text-anchor="middle" font-size="9" fill="#374151">0.00</text><text x="101.5" y="335" text-anchor="middle" font-size="8" fill="#374151" transform="rotate(-45, 101.5, 335)">Floquet Is</text><text x="471.5" y="335" text-anchor="middle" font-size="8" fill="#374151" transform="rotate(-45, 471.5, 335)">Floquet Is</text><rect x="132.14285714285714" y="142.91139240506325" width="33.0" height="167.08860759493675" fill="#8b5cf6" rx="2"/><text x="148.64285714285714" y="137.91139240506325" text-anchor="middle" font-size="9" fill="#374151">2.09</text><rect x="502.14285714285717" y="307" width="33.0" height="3" fill="#8b5cf6" opacity="0.5" rx="2"/><text x="518.6428571428571" y="302" text-anchor="middle" font-size="9" fill="#374151">0.00</text><text x="148.64285714285714" y="335" text-anchor="middle" font-size="8" fill="#374151" transform="rotate(-45, 148.64285714285714, 335)">Floquet XX</text><text x="518.6428571428571" y="335" text-anchor="middle" font-size="8" fill="#374151" transform="rotate(-45, 518.6428571428571, 335)">Floquet XX</text><rect x="179.28571428571428" y="276.0654970751482" width="33.0" height="33.934502924851785" fill="#06b6d4" rx="2"/><text x="195.78571428571428" y="271.0654970751482" text-anchor="middle" font-size="9" fill="#374151">0.42</text><rect x="549.2857142857143" y="307" width="33.0" height="3" fill="#06b6d4" opacity="0.5" rx="2"/><text x="565.7857142857143" y="302" text-anchor="middle" font-size="9" fill="#374151">0.00</text><text x="195.78571428571428" y="335" text-anchor="middle" font-size="8" fill="#374151" transform="rotate(-45, 195.78571428571428, 335)">Kicked Rot</text><text x="565.7857142857143" y="335" text-anchor="middle" font-size="8" fill="#374151" transform="rotate(-45, 565.7857142857143, 335)">Kicked Rot</text><rect x="226.42857142857144" y="230.0" width="33.0" height="80.0" fill="#16a34a" rx="2"/><text x="242.92857142857144" y="225.0" text-anchor="middle" font-size="9" fill="#374151">1.00</text><rect x="596.4285714285714" y="307" width="33.0" height="3" fill="#16a34a" opacity="0.5" rx="2"/><text x="612.9285714285714" y="302" text-anchor="middle" font-size="9" fill="#374151">0.00</text><text x="242.92857142857144" y="335" text-anchor="middle" font-size="8" fill="#374151" transform="rotate(-45, 242.92857142857144, 335)">Circle Map</text><text x="612.9285714285714" y="335" text-anchor="middle" font-size="8" fill="#374151" transform="rotate(-45, 612.9285714285714, 335)">Circle Map</text><rect x="273.57142857142856" y="291.7721518987342" width="33.0" height="18.227848101265824" fill="#f59e0b" rx="2"/><text x="290.07142857142856" y="286.7721518987342" text-anchor="middle" font-size="9" fill="#374151">0.23</text><rect x="643.5714285714286" y="307" width="33.0" height="3" fill="#f59e0b" opacity="0.5" rx="2"/><text x="660.0714285714286" y="302" text-anchor="middle" font-size="9" fill="#374151">0.00</text><text x="290.07142857142856" y="335" text-anchor="middle" font-size="8" fill="#374151" transform="rotate(-45, 290.07142857142856, 335)">Standard M</text><text x="660.0714285714286" y="335" text-anchor="middle" font-size="8" fill="#374151" transform="rotate(-45, 660.0714285714286, 335)">Standard M</text><rect x="320.7142857142857" y="298.86075949367086" width="33.0" height="11.13924050632912" fill="#dc2626" rx="2"/><text x="337.2142857142857" y="293.86075949367086" text-anchor="middle" font-size="9" fill="#374151">0.14</text><rect x="690.7142857142858" y="307" width="33.0" height="3" fill="#dc2626" opacity="0.5" rx="2"/><text x="707.2142857142858" y="302" text-anchor="middle" font-size="9" fill="#374151">0.00</text><text x="337.2142857142857" y="335" text-anchor="middle" font-size="8" fill="#374151" transform="rotate(-45, 337.2142857142857, 335)">GL(2,R) Tr</text><text x="707.2142857142858" y="335" text-anchor="middle" font-size="8" fill="#374151" transform="rotate(-45, 707.2142857142858, 335)">GL(2,R) Tr</text></svg>