<svg xmlns="http://www.w3.org/2000/svg" viewBox="0 0 600 400" style="font-family: Inter, sans-serif;"><rect width="600" height="400" fill="white"/><text x="300.0" y="25" text-anchor="middle" font-size="14" font-weight="bold" fill="#111827">Shelf Width vs Reversibility</text><line x1="70" y1="340" x2="470" y2="340" stroke="#374151" stroke-width="2"/><line x1="70" y1="50" x2="70" y2="340" stroke="#374151" stroke-width="2"/><path d="M 70.0 340.0 L 150.0 340.0 L 270.0 340.0 L 390.0 327.76371308016877 L 470.0 165.0210970464135" fill="none" stroke="#2563eb" stroke-width="2"/><circle cx="70.0" cy="340.0" r="4" fill="#2563eb"/><circle cx="150.0" cy="340.0" r="4" fill="#2563eb"/><circle cx="270.0" cy="340.0" r="4" fill="#2563eb"/><circle cx="390.0" cy="327.76371308016877" r="4" fill="#2563eb"/><circle cx="470.0" cy="165.0210970464135" r="4" fill="#2563eb"/><path d="M 70.0 340.0 L 150.0 340.0 L 270.0 340.0 L 390.0 340.0 L 470.0 138.10126582278477" fill="none" stroke="#8b5cf6" stroke-width="2"/><circle cx="70.0" cy="340.0" r="4" fill="#8b5cf6"/><circle cx="150.0" cy="340.0" r="4" fill="#8b5cf6"/><circle cx="270.0" cy="340.0" r="4" fill="#8b5cf6"/><circle cx="390.0" cy="340.0" r="4" fill="#8b5cf6"/><circle cx="470.0" cy="138.10126582278477" r="4" fill="#8b5cf6"/><path d="M 70.0 340.0 L 150.0 340.0 L 270.0 340.0 L 390.0 340.0 L 470.0 298.9958089658041" fill="none" stroke="#06b6d4" stroke-width="2"/><circle cx="70.0" cy="340.0" r="4" fill="#06b6d4"/><circle cx="150.0" cy="340.0" r="4" fill="#06b6d4"/><circle cx="270.0" cy="340.0" r="4" fill="#06b6d4"/><circle cx="390.0" cy="340.0" r="4" fill="#06b6d4"/><circle cx="470.0" cy="298.9958089658041" r="4" fill="#06b6d4"/><path d="M 70.0 340.0 L 150.0 340.0 L 270.0 340.0 L 390.0 340.0 L 470.0 243.33333333333334" fill="none" stroke="#16a34a" stroke-width="2"/><circle cx="70.0" cy="340.0" r="4" fill="#16a34a"/><circle cx="150.0" cy="340.0" r="4" fill="#16a34a"/><circle cx="270.0" cy="340.0" r="4" fill="#16a34a"/><circle cx="390.0" cy="340.0" r="4" fill="#16a34a"/><circle cx="470.0" cy="243.33333333333334" r="4" fill="#16a34a"/><path d="M 70.0 340.0 L 150.0 340.0 L 270.0 340.0 L 390.0 340.0 L 470.0 317.9746835443038" fill="none" stroke="#f59e0b" stroke-width="2"/><circle cx="70.0" cy="340.0" r="4" fill="#f59e0b"/><circle cx="150.0" cy="340.0" r="4" fill="#f59e0b"/><circle cx="270.0" cy="340.0" r="4" fill="#f59e0b"/><circle cx="390.0" cy="340.0" r="4" fill="#f59e0b"/><circle cx="470.0" cy="317.9746835443038" r="4" fill="#f59e0b"/><path d="M 70.0 340.0 L 150.0 340.0 L 270.0 340.0 L 390.0 340.0 L 470.0 326.5400843881856" fill="none" stroke="#dc2626" stroke-width="2"/><circle cx="70.0" cy="340.0" r="4" fill="#dc2626"/><circle cx="150.0" cy="340.0" r="4" fill="#dc2626"/><circle cx="270.0" cy="340.0" r="4" fill="#dc2626"/><circle cx="390.0" cy="340.0" r="4" fill="#dc2626"/><circle cx="470.0" cy="326.5400843881856" r="4" fill="#dc2626"/><line x1="480" y1="60" x2="500" y2="60" stroke="#2563eb" stroke-width="2"/><text x="505" y="64" font-size="9" fill="#374151">Floquet Isin</text><line x1="480" y1="78" x2="500" y2="78" stroke="#8b5cf6" stroke-width="2"/><text x="505" y="82" font-size="9" fill="#374151">Floquet XXZ</text><line x1="480" y1="96" x2="500" y2="96" stroke="#06b6d4" stroke-width="2"/><text x="505" y="100" font-size="9" fill="#374151">Kicked Rotor</text><line x1="480" y1="114" x2="500" y2="114" stroke="#16a34a" stroke-width="2"/><text x="505" y="118" font-size="9" fill="#374151">Circle Map</text><line x1="480" y1="132" x2="500" y2="132" stroke="#f59e0b" stroke-width="2"/><text x="505" y="136" font-size="9" fill="#374151">Standard Map</text><line x1="480" y1="150" x2="500" y2="150" stroke="#dc2626" stroke-width="2"/><text x="505" y="154" font-size="9" fill="#374151">GL(2,R) Trac</text><text x="270.0" y="390" text-anchor="middle" font-size="12" fill="#374151">Reversibility</text><text x="20" y="195.0" text-anchor="middle" font-size="12" fill="#374151" transform="rotate(-90, 20, 195.0)">Shelf Width Δ</text></svg>